HIERARCHY
ROOT Hips
{
	OFFSET 0.000000 0.000000 0.000000 
	CHANNELS 6 Xposition Yposition Zposition Zrotation Yrotation Xrotation
	JOINT LeftUpLeg
	{
		OFFSET 1.363060 -1.794630 0.839290 
		CHANNELS 3 Zrotation Yrotation Xrotation
		JOINT LeftLeg
		{
			OFFSET 2.448110 -6.726130 0.000000 
			CHANNELS 3 Zrotation Yrotation Xrotation
			JOINT LeftFoot
			{
				OFFSET 2.562200 -7.039590 0.000000 
				CHANNELS 3 Zrotation Yrotation Xrotation
				JOINT LeftToeBase
				{
					OFFSET 0.157640 -0.433110 2.322550 
					CHANNELS 3 Zrotation Yrotation Xrotation
					End Site
					{
						OFFSET 0.000000 0.000000 0.000000 
					}
				}
			}
		}
	}
	JOINT RightUpLeg
	{
		OFFSET -1.305520 -1.794630 0.839290 
		CHANNELS 3 Zrotation Yrotation Xrotation
		JOINT RightLeg
		{
			OFFSET -2.542530 -6.985550 0.000000 
			CHANNELS 3 Zrotation Yrotation Xrotation
			JOINT RightFoot
			{
				OFFSET -2.568260 -7.056230 0.000000 
				CHANNELS 3 Zrotation Yrotation Xrotation
				JOINT RightToeBase
				{
					OFFSET -0.164730 -0.452590 2.363150 
					CHANNELS 3 Zrotation Yrotation Xrotation
					End Site
					{
						OFFSET 0.000000 0.000000 0.000000 
					}
				}
			}
		}
	}
	JOINT Spine
	{
		OFFSET 0.028270 2.035590 -0.193380 
		CHANNELS 3 Zrotation Yrotation Xrotation
		JOINT Spine1
		{
			OFFSET 0.056720 2.048850 -0.042750 
			CHANNELS 3 Zrotation Yrotation Xrotation
			JOINT Neck1
			{
				OFFSET -0.054170 1.746240 0.172020 
				CHANNELS 3 Zrotation Yrotation Xrotation
				JOINT Head
				{
					OFFSET 0.104070 1.761360 -0.123970 
					CHANNELS 3 Zrotation Yrotation Xrotation
					End Site
					{
						OFFSET 0.000000 0.000000 0.000000 
					}
				}
			}
			JOINT LeftArm
			{
				OFFSET 3.362410 1.200890 -0.311210 
				CHANNELS 3 Zrotation Yrotation Xrotation
				JOINT LeftForeArm
				{
					OFFSET 4.983000 -0.000000 -0.000000 
					CHANNELS 3 Zrotation Yrotation Xrotation
					JOINT LeftHand
					{
						OFFSET 3.483560 -0.000000 -0.000000 
						CHANNELS 3 Zrotation Yrotation Xrotation
						JOINT LeftHandIndex1
						{
							OFFSET 0.715260 -0.000000 -0.000000 
							CHANNELS 3 Zrotation Yrotation Xrotation
							End Site
							{
								OFFSET 0.000000 0.000000 0.000000 
							}
						}
					}
				}
			}
			JOINT RightArm
			{
				OFFSET -3.136600 1.374050 -0.404650 
				CHANNELS 3 Zrotation Yrotation Xrotation
				JOINT RightForeArm
				{
					OFFSET -5.241900 -0.000000 -0.000000 
					CHANNELS 3 Zrotation Yrotation Xrotation
					JOINT RightHand
					{
						OFFSET -3.444170 -0.000000 -0.000000 
						CHANNELS 3 Zrotation Yrotation Xrotation
						JOINT RightHandIndex1
						{
							OFFSET -0.622530 -0.000000 -0.000000 
							CHANNELS 3 Zrotation Yrotation Xrotation
							End Site
							{
								OFFSET 0.000000 0.000000 0.000000 
							}
						}
					}
				}
			}
		}
	}
}
MOTION
Frames: 16
Frame Time: 0.041667
-0.503700 5.952600 26.744400 -22.839000 -18.802600 52.882400 148.907900 -75.903900 92.744100 38.806000 6.933500 160.481600 -1.250100 24.983000 7.797400 4.143900 -12.349500 -36.979800 2.674500 -22.385500 -80.875700 -35.996500 -12.165000 143.681600 1.740400 30.490700 -10.842100 -0.419400 -4.156600 11.517600 0.740000 7.599500 5.280600 2.018500 3.630700 -8.430700 32.368700 -18.026600 2.154100 8.857900 -6.665700 9.070000 -46.003200 -33.680800 6.292300 17.904800 -28.035100 -4.504400 0.000000 0.000000 -46.697100 -7.125000 0.000000 0.000000 77.858400 46.456400 39.256300 -22.833100 33.905800 -7.045000 0.000000 0.000000 7.634200 7.125000 0.000000 0.000000 
-0.586100 5.977300 26.737400 -22.320000 -18.447400 53.266500 142.668100 -77.794900 100.581900 38.812900 6.914100 160.538800 -0.922800 22.961000 8.457900 3.898800 -12.024500 -35.818700 3.382100 -23.017000 -81.286800 -36.004800 -12.154000 143.721000 1.805900 30.721400 -10.653600 -0.467700 -4.386600 12.166800 0.780200 7.365000 5.262000 2.303100 3.531100 -8.331300 32.280400 -17.910700 2.036100 8.859700 -6.623600 9.015400 -45.626900 -33.657100 5.526100 17.816600 -27.921600 -4.463000 0.000000 0.000000 -46.577000 -7.125000 0.000000 0.000000 78.045600 46.516100 39.868900 -23.283400 34.397300 -7.297800 0.000000 0.000000 7.554700 7.125000 0.000000 0.000000 
-0.668900 6.001100 26.729100 -21.801000 -18.111300 53.704100 133.193400 -79.345400 111.621900 38.819800 6.894800 160.596000 -0.619900 20.883400 9.161800 3.650700 -11.680400 -34.610700 4.102700 -23.594700 -81.807300 -36.017000 -12.137700 143.779000 1.877900 30.968100 -10.442900 -0.512300 -4.588000 12.737000 0.847200 7.124100 5.249000 2.644400 3.429100 -8.196600 32.177900 -17.777500 1.932500 8.868800 -6.571600 8.967400 -45.293800 -33.630700 4.677700 17.709500 -27.783600 -4.413000 0.000000 0.000000 -46.421800 -7.125000 0.000000 0.000000 78.195300 46.607900 40.522300 -23.739800 34.887900 -7.557200 0.000000 0.000000 7.479500 7.125000 0.000000 0.000000 
-0.752000 6.024500 26.719500 -21.286000 -17.796100 54.179400 120.118500 -80.348800 126.241400 38.825500 6.878600 160.643700 -0.342800 18.749800 9.904600 3.400400 -11.316600 -33.355200 4.844400 -23.662100 -82.400300 -36.031300 -12.118700 143.846800 1.930800 31.009500 -10.104000 -0.552500 -4.761700 13.230200 0.930200 6.881200 5.239400 3.019500 3.325800 -8.039000 32.063900 -17.633900 1.840200 8.880500 -6.513100 8.923700 -44.984700 -33.607500 3.761800 17.583100 -27.620000 -4.354200 0.000000 0.000000 -46.234400 -7.125000 0.000000 0.000000 78.327400 46.724500 41.197200 -24.200900 35.376000 -7.822500 0.000000 0.000000 7.418300 7.125000 0.000000 0.000000 
-0.835400 6.048100 26.709300 -20.776000 -17.502400 54.667800 104.567900 -80.598800 143.330300 38.828500 6.870300 160.668500 -0.093100 16.560900 10.677100 3.148900 -10.932200 -32.051600 5.578200 -23.696500 -83.037800 -36.045500 -12.099600 143.914600 1.987100 31.066800 -9.757800 -0.588000 -4.909600 13.651100 1.015900 6.641000 5.231500 3.399900 3.222800 -7.876000 31.941600 -17.487400 1.753700 8.889000 -6.452400 8.880700 -44.676500 -33.594200 2.799100 17.436800 -27.430000 -4.286600 0.000000 0.000000 -46.017600 -7.125000 0.000000 0.000000 78.465200 46.854100 41.870800 -24.665800 35.860500 -8.093300 0.000000 0.000000 7.379600 7.125000 0.000000 0.000000 
-0.918900 6.072700 26.699100 -20.271000 -17.228800 55.140800 89.248700 -80.031800 160.198800 38.827100 6.874100 160.657000 0.126800 14.321400 11.468900 2.897200 -10.526700 -30.699700 6.292800 -23.702400 -83.672600 -36.056800 -12.084400 143.968700 2.045400 31.135700 -9.409600 -0.618600 -5.033600 14.004300 1.092800 6.407100 5.224700 3.760200 3.121200 -7.726500 31.814000 -17.343800 1.667600 8.889500 -6.393000 8.834400 -44.348800 -33.595400 1.808600 17.269900 -27.212200 -4.210000 0.000000 0.000000 -45.771100 -7.125000 0.000000 0.000000 78.629400 46.985300 42.525500 -25.133300 36.339900 -8.368700 0.000000 0.000000 7.369300 7.125000 0.000000 0.000000 
-1.002200 6.098900 26.689600 -19.769000 -16.972600 55.569900 76.421800 -78.788100 174.600800 38.819800 6.894800 160.596000 0.315100 12.040500 12.269900 2.646500 -10.099600 -29.299700 6.976800 -23.707000 -84.257200 -36.062100 -12.077200 143.994200 2.105800 31.222900 -9.067800 -0.644400 -5.135300 14.295000 1.155000 6.181300 5.220400 4.084600 3.022000 -7.607600 31.684200 -17.206500 1.578200 8.880100 -6.337300 8.782100 -43.990400 -33.614000 0.801500 17.081200 -26.964700 -4.124100 0.000000 0.000000 -45.489200 -7.125000 0.000000 0.000000 78.832700 47.109400 43.152000 -25.601300 36.812300 -8.647700 0.000000 0.000000 7.389400 7.125000 0.000000 0.000000 
-1.085400 6.127300 26.681700 -19.267000 -16.729800 55.930200 66.575000 -77.095600 -173.940400 38.804900 6.936700 160.472000 0.470000 9.731400 13.071600 2.398600 -9.651200 -27.854300 7.618900 -23.692000 -84.747200 -36.059300 -12.081100 143.980500 2.166200 31.313900 -8.728500 -0.665500 -5.217000 14.528600 1.203300 5.963300 5.221600 4.369700 2.925200 -7.531800 31.555200 -17.075800 1.484300 8.861800 -6.285900 8.723600 -43.600900 -33.649900 -0.221500 16.868900 -26.684600 -4.028300 0.000000 0.000000 -45.159400 -7.125000 0.000000 0.000000 79.078600 47.223600 43.751300 -26.066600 37.274400 -8.928000 0.000000 0.000000 7.438600 7.125000 0.000000 0.000000 
-1.168300 6.158200 26.675800 -18.764000 -16.496400 56.201600 59.140300 -75.150100 -164.853400 38.781400 7.002100 160.278400 0.590400 7.410900 13.865700 2.155100 -9.181900 -26.366000 8.209900 -23.678100 -85.105900 -36.046100 -12.098800 143.917600 2.227500 31.415100 -8.395900 -0.682000 -5.280000 14.709000 1.243500 5.752200 5.232700 4.621500 2.830900 -7.507100 31.429900 -16.950100 1.387500 8.838000 -6.238100 8.660100 -43.188700 -33.701600 -1.268200 16.630800 -26.368500 -3.922000 0.000000 0.000000 -44.764800 -7.125000 0.000000 0.000000 79.362900 47.329800 44.331500 -26.524400 37.721900 -9.206700 0.000000 0.000000 7.514200 7.125000 0.000000 0.000000 
-1.250900 6.191900 26.672800 -18.261000 -16.268600 56.368400 53.381700 -73.086000 -157.399900 38.748400 7.092800 160.009400 0.675900 5.097100 14.643400 1.917900 -8.693000 -24.839700 8.742800 -23.673700 -85.302100 -36.020500 -12.133100 143.795700 2.289800 31.528000 -8.071200 -0.694100 -5.325700 14.840000 1.283200 5.546800 5.257800 4.850000 2.738800 -7.538300 31.310000 -16.827100 1.290800 8.812300 -6.192300 8.594000 -42.765300 -33.767400 -2.350800 16.365100 -26.013100 -3.804700 0.000000 0.000000 -44.286400 -7.125000 0.000000 0.000000 79.679500 47.433900 44.904600 -26.968100 38.148800 -9.479400 0.000000 0.000000 7.612600 7.125000 0.000000 0.000000 
-1.333100 6.228400 26.672900 -17.757000 -16.044200 56.423600 48.736400 -70.977600 -151.025100 38.705300 7.209400 159.662900 0.727000 2.808400 15.400300 1.689200 -8.186200 -23.281100 9.213800 -23.684400 -85.320100 -35.982000 -12.184300 143.612800 2.353400 31.654400 -7.755000 -0.701700 -5.354500 14.922400 1.328600 5.346700 5.299400 5.064700 2.649200 -7.626500 31.197400 -16.704800 1.197600 8.788300 -6.147100 8.527800 -42.340300 -33.845600 -3.481800 16.070100 -25.615600 -3.676200 0.000000 0.000000 -43.706600 -7.125000 0.000000 0.000000 80.022400 47.541400 45.481600 -27.390600 38.549200 -9.741600 0.000000 0.000000 7.730800 7.125000 0.000000 0.000000 
-1.414900 6.267500 26.676300 -17.256000 -15.822100 56.371000 44.845900 -68.856900 -145.383000 38.652500 7.349000 159.246500 0.745800 0.560500 16.138300 1.470700 -7.663600 -21.696900 9.623900 -23.712200 -85.163200 -35.930800 -12.252000 143.370800 2.418700 31.795200 -7.448500 -0.704700 -5.365500 14.954100 1.382700 5.151400 5.356800 5.271800 2.562200 -7.768700 31.092500 -16.582100 1.112000 8.767900 -6.101400 8.463800 -41.919800 -33.934600 -4.670600 15.745600 -25.174500 -3.537000 0.000000 0.000000 -43.011400 -7.125000 0.000000 0.000000 80.388500 47.657500 46.071600 -27.785000 38.917500 -9.988300 0.000000 0.000000 7.866000 7.125000 0.000000 0.000000 
-1.496300 6.308500 26.682600 -16.758000 -15.603200 56.228600 41.517600 -66.720100 -140.306100 38.590800 7.508300 158.769600 0.735100 -1.634600 16.866800 1.264300 -7.127400 -20.093500 9.979700 -23.754000 -84.860100 -35.868500 -12.333300 143.078500 2.485400 31.949100 -7.151100 -0.702700 -5.358100 14.932800 1.444800 4.960700 5.426000 5.474300 2.478100 -7.957000 30.994700 -16.458600 1.037400 8.751500 -6.054700 8.403300 -41.505500 -34.032600 -5.922100 15.392500 -24.690100 -3.388200 0.000000 0.000000 -42.193500 -7.125000 0.000000 0.000000 80.777400 47.784700 46.680900 -28.145100 39.249500 -10.215400 0.000000 0.000000 8.015400 7.125000 0.000000 0.000000 
-1.577400 6.350600 26.690800 -16.268000 -15.390600 56.028100 38.670600 -64.542200 -135.743400 38.522300 7.680800 158.251300 0.698700 -3.771200 17.603000 1.071600 -6.580400 -18.478200 10.294700 -23.800200 -84.463800 -35.799100 -12.423100 142.754400 2.553400 32.112500 -6.859900 -0.696000 -5.333000 14.860700 1.511900 4.774800 5.499800 5.673600 2.397200 -8.177900 30.902200 -16.334900 0.978000 8.737900 -6.006600 8.347500 -41.096400 -34.137200 -7.236600 15.013300 -24.164700 -3.231400 0.000000 0.000000 -41.251700 -7.125000 0.000000 0.000000 81.189500 47.923500 47.313600 -28.466500 39.542100 -10.419300 0.000000 0.000000 8.176400 7.125000 0.000000 0.000000 
-1.658000 6.392700 26.699800 -15.790000 -15.188300 55.811300 36.288900 -62.288000 -131.712000 38.449700 7.858700 157.714300 0.640400 -5.849400 18.367900 0.893800 -6.025700 -16.859000 10.584100 -23.720100 -84.037800 -35.726900 -12.515200 142.420300 2.613100 32.221500 -6.547400 -0.685200 -5.292100 14.743700 1.580100 4.593300 5.569600 5.870700 2.319700 -8.413600 30.812600 -16.212000 0.937900 8.725800 -5.957300 8.297600 -40.691500 -34.244600 -8.609400 14.611900 -23.602600 -3.068900 0.000000 0.000000 -40.191300 -7.125000 0.000000 0.000000 81.624500 48.072800 47.971900 -28.746500 39.794500 -10.598100 0.000000 0.000000 8.346000 7.125000 0.000000 0.000000 
-1.738200 6.433400 26.708300 -15.328000 -15.000600 55.621400 34.374200 -59.925500 -128.245900 38.376100 8.034300 157.181600 0.563500 -7.874700 19.181600 0.732200 -5.466800 -15.244900 10.872800 -23.652000 -83.662200 -35.657200 -12.603100 142.099700 2.674900 32.343600 -6.237900 -0.671300 -5.239600 14.593100 1.645900 4.415800 5.626900 6.067100 2.245300 -8.645100 30.723400 -16.090600 0.920300 8.713500 -5.906700 8.254200 -40.290900 -34.350300 -10.032100 14.193100 -23.010100 -2.903200 0.000000 0.000000 -39.022900 -7.125000 0.000000 0.000000 82.080600 48.230900 48.657500 -28.984500 40.006900 -10.750700 0.000000 0.000000 8.521000 7.125000 0.000000 0.000000 
